<svg width="20" height="20" viewBox="0 0 20 20" fill="none" xmlns="http://www.w3.org/2000/svg">
<path d="M18.5211 1.47797C18.3336 1.2905 18.0793 1.18518 17.8141 1.18518C17.5489 1.18518 17.2946 1.2905 17.1071 1.47797L1.48009 17.107C1.38458 17.1992 1.3084 17.3096 1.25599 17.4316C1.20358 17.5536 1.176 17.6848 1.17484 17.8176C1.17369 17.9503 1.19899 18.082 1.24927 18.2049C1.29955 18.3278 1.37381 18.4395 1.4677 18.5334C1.56159 18.6273 1.67324 18.7015 1.79614 18.7518C1.91904 18.8021 2.05071 18.8274 2.18349 18.8262C2.31627 18.8251 2.44749 18.7975 2.5695 18.7451C2.6915 18.6927 2.80185 18.6165 2.89409 18.521L18.5201 2.89197C18.7076 2.70444 18.8129 2.45013 18.8129 2.18497C18.8129 1.9198 18.7076 1.66549 18.5201 1.47797H18.5211Z" fill="#A986A7"/>
<path d="M3.108 13.498L5.668 10.938C5.59501 10.6306 5.5571 10.3159 5.555 10C5.555 7.621 7.545 5.691 10 5.691C10.286 5.691 10.564 5.723 10.835 5.773L12.038 4.571C11.3644 4.4594 10.6828 4.40255 10 4.401C3.44 4.4 0 9.231 0 10C0 10.423 1.057 12.09 3.108 13.497V13.498ZM16.895 6.505L14.333 9.065C14.402 9.367 14.444 9.678 14.444 10C14.444 12.379 12.455 14.307 10 14.307C9.716 14.307 9.44 14.275 9.171 14.226L7.967 15.429C8.609 15.533 9.283 15.599 10 15.599C16.56 15.599 20 10.766 20 10C20 9.576 18.944 7.91 16.895 6.505V6.505Z" fill="#A986A7"/>
</svg>
