<svg width="41" height="40" viewBox="0 0 41 40" fill="none" xmlns="http://www.w3.org/2000/svg">
<circle cx="20.7918" cy="19.8015" r="19.8015" fill="#A986A7"/>
<path d="M28.1418 15.6618L26.1927 27.2982C26.1622 27.4651 26.0742 27.6161 25.944 27.725C25.8139 27.834 25.6497 27.8939 25.48 27.8945H16.52C16.3503 27.8939 16.1861 27.834 16.056 27.725C15.9258 27.6161 15.8378 27.4651 15.8073 27.2982L13.8582 15.6618C13.8414 15.5583 13.8472 15.4523 13.8752 15.3512C13.9033 15.2501 13.9528 15.1562 14.0205 15.0761C14.0882 14.9959 14.1725 14.9314 14.2675 14.8869C14.3625 14.8424 14.466 14.8189 14.5709 14.8182H27.4145C27.5207 14.8168 27.6258 14.8387 27.7226 14.8823C27.8194 14.9259 27.9055 14.9901 27.9748 15.0705C28.0441 15.1509 28.0949 15.2455 28.1238 15.3477C28.1527 15.4498 28.1588 15.557 28.1418 15.6618ZM29 12.6364C29 12.8292 28.9234 13.0142 28.787 13.1506C28.6506 13.287 28.4656 13.3636 28.2727 13.3636H13.7273C13.5344 13.3636 13.3494 13.287 13.213 13.1506C13.0766 13.0142 13 12.8292 13 12.6364C13 12.4435 13.0766 12.2585 13.213 12.1221C13.3494 11.9857 13.5344 11.9091 13.7273 11.9091H17.3636V9.72727C17.3636 9.53439 17.4403 9.3494 17.5766 9.21301C17.713 9.07662 17.898 9 18.0909 9H23.9091C24.102 9 24.287 9.07662 24.4234 9.21301C24.5597 9.3494 24.6364 9.53439 24.6364 9.72727V11.9091H28.2727C28.4656 11.9091 28.6506 11.9857 28.787 12.1221C28.9234 12.2585 29 12.4435 29 12.6364ZM23.1818 11.9091V10.4545H18.8182V11.9091H23.1818Z" fill="white"/>
</svg>
