<svg width="44" height="44" viewBox="0 0 44 44" fill="none" xmlns="http://www.w3.org/2000/svg">
<circle cx="21.7201" cy="21.7201" r="21.7201" fill="#A986A7"/>
<path d="M12.9601 17.4536H27.2047L24.3422 20.3161C23.7259 20.8895 24.1985 21.9973 25.0261 21.9672C25.2735 21.9672 25.521 21.8727 25.7099 21.6838L30.2234 17.1702C30.4882 16.8872 30.5686 16.4801 30.4331 16.1161C30.3737 16.0061 30.3025 15.8994 30.2234 15.8026C30.2234 15.8026 25.7099 11.289 25.7099 11.289C24.7975 10.4069 23.4574 11.7409 24.3422 12.6567C24.3422 12.6567 27.2047 15.5192 27.2047 15.5192H12.9601C11.698 15.5382 11.6814 17.4312 12.9601 17.4536ZM29.5396 24.5464H15.2949L18.1575 21.6838C19.0404 20.7735 17.7049 19.4304 16.7898 20.3162C16.7898 20.3161 12.2762 24.8297 12.2762 24.8297C12.0069 25.1188 11.9137 25.5634 12.0902 25.9231C12.1397 26.0218 12.209 26.1113 12.2762 26.1974L16.7898 30.7109C17.7022 31.5932 19.0423 30.2589 18.1574 29.3432C18.1575 29.3433 15.2949 26.4807 15.2949 26.4807H29.5396C30.8016 26.462 30.8183 24.5686 29.5396 24.5464Z" fill="white"/>
</svg>
