<svg width="30" height="30" viewBox="0 0 30 30" fill="none" xmlns="http://www.w3.org/2000/svg">
<path fill-rule="evenodd" clip-rule="evenodd" d="M14.9134 0.505859C25.4393 0.505859 29.0587 4.13216 29.0587 14.6581C29.0587 25.1771 25.4393 28.8034 14.9134 28.8034C4.39436 28.8034 0.768066 25.1771 0.768066 14.6581C0.768066 4.13216 4.39436 0.505859 14.9134 0.505859Z" fill="#A986A7"/>
<path d="M12.1323 20.1354C11.8728 20.1354 11.6923 20.0564 11.5908 19.8985C11.5005 19.7405 11.4779 19.5318 11.5231 19.2723L11.9631 16.9538L12.6738 17.0892H11.4554C11.2862 17.0892 11.1395 17.0667 11.0154 17.0215C10.9026 16.9651 10.8123 16.8862 10.7446 16.7846C10.6882 16.6831 10.66 16.559 10.66 16.4123C10.66 16.1867 10.7277 16.0174 10.8631 15.9046C11.0097 15.7918 11.2072 15.7354 11.4554 15.7354H12.9277L12.1662 15.8877L12.9277 12.0292L13.4523 12.1985H11.8108C11.6415 12.1985 11.4949 12.1703 11.3708 12.1138C11.2579 12.0574 11.1677 11.9785 11.1 11.8769C11.0436 11.7754 11.0154 11.6513 11.0154 11.5046C11.0154 11.279 11.0831 11.1154 11.2185 11.0138C11.3651 10.901 11.5626 10.8446 11.8108 10.8446H13.7062L13.0969 10.9969L13.5708 8.64462C13.6272 8.39641 13.7231 8.2159 13.8585 8.10308C14.0051 7.99026 14.1913 7.93385 14.4169 7.93385C14.6538 7.93385 14.8231 8.01282 14.9246 8.17077C15.0374 8.31744 15.0656 8.52615 15.0092 8.79692L14.6031 10.8446H16.7354L17.1754 8.64462C17.2318 8.39641 17.3277 8.2159 17.4631 8.10308C17.6097 7.99026 17.7959 7.93385 18.0215 7.93385C18.2585 7.93385 18.4277 8.01282 18.5292 8.17077C18.6421 8.31744 18.6703 8.52615 18.6138 8.79692L18.1738 10.9969L17.6662 10.8446H18.6985C18.8677 10.8446 19.0087 10.8728 19.1215 10.9292C19.2456 10.9744 19.3359 11.0477 19.3923 11.1492C19.46 11.2395 19.4938 11.3579 19.4938 11.5046C19.4938 11.719 19.4262 11.8882 19.2908 12.0123C19.1554 12.1364 18.9579 12.1985 18.6985 12.1985H17.3954L17.9877 12.0292L17.2262 15.8877L16.7015 15.7354H18.3431C18.5123 15.7354 18.6533 15.7636 18.7662 15.82C18.8903 15.8651 18.9805 15.9385 19.0369 16.04C19.1046 16.1415 19.1385 16.2656 19.1385 16.4123C19.1385 16.6267 19.0708 16.7959 18.9354 16.92C18.8 17.0328 18.6026 17.0892 18.3431 17.0892H16.4477L17.0569 16.9538L16.5492 19.4246C16.5041 19.6728 16.4082 19.8533 16.2615 19.9662C16.1262 20.079 15.9456 20.1354 15.72 20.1354C15.4831 20.1354 15.3082 20.0621 15.1954 19.9154C15.0938 19.7574 15.0656 19.5431 15.1108 19.2723L15.5508 17.0892H13.4185L12.9615 19.4246C12.9164 19.6728 12.8205 19.8533 12.6738 19.9662C12.5385 20.079 12.3579 20.1354 12.1323 20.1354ZM13.6723 15.7354H15.7877L16.4815 12.1985H14.3662L13.6723 15.7354Z" fill="white"/>
</svg>
