<svg width="20" height="20" viewBox="0 0 20 20" fill="none" xmlns="http://www.w3.org/2000/svg">
<path d="M16.25 10C16.25 9.83424 16.3158 9.67527 16.4331 9.55806C16.5503 9.44085 16.7092 9.375 16.875 9.375C17.0408 9.375 17.1997 9.44085 17.3169 9.55806C17.4342 9.67527 17.5 9.83424 17.5 10V16.875C17.5 17.0408 17.4342 17.1997 17.3169 17.3169C17.1997 17.4342 17.0408 17.5 16.875 17.5H3.125C2.95924 17.5 2.80027 17.4342 2.68306 17.3169C2.56585 17.1997 2.5 17.0408 2.5 16.875V3.125C2.5 2.95924 2.56585 2.80027 2.68306 2.68306C2.80027 2.56585 2.95924 2.5 3.125 2.5H10C10.1658 2.5 10.3247 2.56585 10.4419 2.68306C10.5592 2.80027 10.625 2.95924 10.625 3.125C10.625 3.29076 10.5592 3.44973 10.4419 3.56694C10.3247 3.68415 10.1658 3.75 10 3.75H3.75V16.25H16.25V10Z" fill="#B29BE2"/>
<path d="M9.17897 10.8248L10.2102 10.6773L16.5452 4.34357C16.6049 4.28592 16.6525 4.21695 16.6853 4.1407C16.718 4.06445 16.7353 3.98244 16.736 3.89945C16.7367 3.81646 16.7209 3.73416 16.6895 3.65735C16.6581 3.58054 16.6117 3.51076 16.553 3.45208C16.4943 3.39339 16.4245 3.34699 16.3477 3.31556C16.2709 3.28413 16.1886 3.26832 16.1056 3.26904C16.0226 3.26976 15.9406 3.28701 15.8643 3.31976C15.7881 3.35252 15.7191 3.40013 15.6615 3.45982L9.32522 9.79357L9.17772 10.8248H9.17897ZM17.429 2.57482C17.6032 2.74895 17.7414 2.9557 17.8357 3.18327C17.93 3.41083 17.9786 3.65474 17.9786 3.90107C17.9786 4.1474 17.93 4.39132 17.8357 4.61888C17.7414 4.84645 17.6032 5.0532 17.429 5.22732L10.9477 11.7086C10.8522 11.8045 10.728 11.8668 10.594 11.8861L8.53147 12.1811C8.43535 12.1949 8.33734 12.1861 8.24521 12.1554C8.15307 12.1247 8.06935 12.073 8.00069 12.0044C7.93202 11.9357 7.8803 11.852 7.84963 11.7598C7.81895 11.6677 7.81017 11.5697 7.82397 11.4736L8.11897 9.41107C8.13791 9.2772 8.19976 9.15307 8.29522 9.05732L14.7777 2.57607C15.1293 2.22457 15.6062 2.0271 16.1033 2.0271C16.6005 2.0271 17.0774 2.22457 17.429 2.57607V2.57482Z" fill="#B29BE2"/>
</svg>
