<svg width="23" height="24" viewBox="0 0 23 24" fill="none" xmlns="http://www.w3.org/2000/svg">
<path d="M21.046 2.97127H17.9369V1.53631C17.9371 1.34603 17.8616 1.16348 17.7271 1.02884C17.5927 0.894199 17.4102 0.818486 17.2199 0.81836C17.0296 0.818233 16.8471 0.893702 16.7125 1.02817C16.5778 1.16263 16.5021 1.34507 16.502 1.53536V2.97127H12.1971V1.53631C12.1972 1.44209 12.1787 1.34878 12.1427 1.26171C12.1067 1.17464 12.0539 1.09551 11.9873 1.02884C11.9207 0.962174 11.8417 0.909272 11.7546 0.873157C11.6676 0.837043 11.5743 0.818422 11.4801 0.81836C11.2898 0.818233 11.1073 0.893702 10.9726 1.02817C10.838 1.16263 10.7623 1.34507 10.7622 1.53536V2.97127H6.45729V1.53631C6.45736 1.44209 6.43886 1.34878 6.40286 1.26171C6.36686 1.17464 6.31407 1.09551 6.24749 1.02884C6.18091 0.962174 6.10185 0.909272 6.01482 0.873157C5.9278 0.837043 5.83452 0.818422 5.74029 0.81836C5.55001 0.818233 5.36746 0.893702 5.23282 1.02817C5.09818 1.16263 5.02247 1.34507 5.02234 1.53536V2.97127H1.91327C1.40601 2.97127 0.919503 3.17271 0.560722 3.53132C0.201942 3.88992 0.000253633 4.37632 0 4.88358V21.8639C0 22.3713 0.201576 22.858 0.560384 23.2168C0.919192 23.5756 1.40584 23.7771 1.91327 23.7771H21.046C21.5534 23.7771 22.0401 23.5756 22.3989 23.2168C22.7577 22.858 22.9593 22.3713 22.9593 21.8639V4.88358C22.959 4.37632 22.7573 3.88992 22.3985 3.53132C22.0398 3.17271 21.5533 2.97127 21.046 2.97127ZM21.5243 21.8648C21.5243 21.9915 21.474 22.113 21.3846 22.2027C21.2951 22.2924 21.1736 22.3429 21.0469 22.3431H1.91327C1.78641 22.3431 1.66475 22.2928 1.57505 22.2031C1.48535 22.1133 1.43495 21.9917 1.43495 21.8648V4.88454C1.43521 4.75785 1.48571 4.63643 1.57539 4.54694C1.66506 4.45744 1.78658 4.40718 1.91327 4.40718H5.02234V5.84213C5.02221 6.03242 5.09768 6.21496 5.23215 6.34961C5.36661 6.48425 5.54905 6.55996 5.73934 6.56009C5.92962 6.56022 6.11217 6.48475 6.24681 6.35028C6.38145 6.21582 6.45717 6.03338 6.45729 5.84309V4.40718H10.7622V5.84213C10.762 6.03242 10.8375 6.21496 10.972 6.34961C11.1064 6.48425 11.2889 6.55996 11.4792 6.56009C11.6694 6.56022 11.852 6.48475 11.9866 6.35028C12.1213 6.21582 12.197 6.03338 12.1971 5.84309V4.40718H16.502V5.84213C16.5018 6.03242 16.5773 6.21496 16.7118 6.34961C16.8462 6.48425 17.0287 6.55996 17.219 6.56009C17.4093 6.56022 17.5918 6.48475 17.7264 6.35028C17.8611 6.21582 17.9368 6.03338 17.9369 5.84309V4.40718H21.046C21.1725 4.40743 21.2938 4.45781 21.3833 4.54727C21.4727 4.63674 21.5231 4.75801 21.5234 4.88454L21.5243 21.8648Z" fill="#A986A7"/>
<path d="M5.02234 9.42871H7.89225V11.5811H5.02234V9.42871ZM5.02234 13.0161H7.89225V15.1685H5.02234V13.0161ZM5.02234 16.6035H7.89225V18.7559H5.02234V16.6035ZM10.0447 16.6035H12.9146V18.7559H10.0447V16.6035ZM10.0447 13.0161H12.9146V15.1685H10.0447V13.0161ZM10.0447 9.42871H12.9146V11.5811H10.0447V9.42871ZM15.067 16.6035H17.9369V18.7559H15.067V16.6035ZM15.067 13.0161H17.9369V15.1685H15.067V13.0161ZM15.067 9.42871H17.9369V11.5811H15.067V9.42871Z" fill="#A986A7"/>
</svg>
