<svg width="48" height="44" viewBox="0 0 48 44" fill="none" xmlns="http://www.w3.org/2000/svg">
<ellipse cx="24.0611" cy="21.7201" rx="23.6439" ry="21.7201" fill="#A986A7"/>
<path fill-rule="evenodd" clip-rule="evenodd" d="M14.9567 20.4362C15.1804 18.795 16.2046 17.728 17.8311 17.3955C18.3153 17.2947 18.8196 17.2628 19.3162 17.2547C20.4347 17.2357 21.5532 17.2568 22.6743 17.246C23.77 17.2362 24.3729 16.6692 24.3821 15.6628C24.3848 15.4267 24.3821 15.1932 24.3821 14.9479H28.6647C28.688 15.6493 28.4253 16.4742 29.1879 16.8609C29.8173 17.1777 30.5989 17.2346 31.3599 17.4182V21.1349H20.0079C19.1034 21.1349 19.1045 21.136 19.0779 21.9977C19.0741 22.1028 19.0406 22.2057 19.0205 22.3243H14.9464C14.9464 21.6548 14.8744 21.0368 14.9572 20.4362H14.9567ZM15.1468 21.7247C15.169 21.8357 15.3055 21.9224 15.3938 22.0221C15.4804 21.9246 15.625 21.8357 15.6435 21.7312C15.6798 21.4745 15.6521 21.2123 15.657 20.9507C15.6911 19.2825 16.6709 18.1938 18.4605 18.0378C19.8265 17.9149 21.2103 17.9734 22.5855 17.9311C22.9587 17.9214 23.3476 17.8927 23.7002 17.7838C24.6962 17.4735 25.2741 16.6144 25.162 15.6633C25.1458 15.5404 24.9914 15.4315 24.9026 15.3156C24.8094 15.4283 24.6524 15.5339 24.6372 15.6579C24.4682 17.0293 23.9775 17.4415 22.4913 17.4529C21.1746 17.4616 19.8476 17.3976 18.5466 17.5358C16.2409 17.7838 15.1392 19.0241 15.1327 21.1695C15.1327 21.3559 15.1013 21.5476 15.1468 21.7247ZM29.4414 17.2834C28.8267 17.077 28.4118 16.654 28.46 15.9732C28.46 15.8843 28.4708 15.7749 28.4264 15.7013C28.3522 15.5659 28.2379 15.4451 28.141 15.3221C28.0608 15.4451 27.9227 15.5637 27.9108 15.6931C27.8187 16.8316 28.6198 17.7459 29.8428 17.9068C30.119 17.9441 30.405 17.9642 30.6753 17.9214C30.8204 17.8981 30.9363 17.7237 31.14 17.5542C30.4093 17.4442 29.8991 17.435 29.4414 17.2834ZM13.6373 9.00025C16.1521 9.00241 18.6663 8.99266 21.1832 9.01595C21.4838 9.02029 21.844 9.14974 22.078 9.32956C22.8856 9.95243 23.6552 10.623 24.4362 11.2691C24.8056 10.9631 26.5302 10.8792 28.4427 11.0508C28.6842 12.0697 28.928 13.1134 29.1809 14.1809H23.8811C23.9715 13.7774 24.0224 13.4096 24.1449 13.0592C24.2732 12.6876 24.1757 12.4482 23.8578 12.1991C23.1217 11.6282 22.4409 10.9951 21.694 10.4356C21.4286 10.2373 21.0365 10.083 20.7006 10.0765C18.3641 10.0456 16.0264 10.0396 13.6941 10.0743C13.1119 10.083 12.9407 9.8961 13.0171 9.40809C13.0317 9.30085 13.035 9.1909 13.0458 9.00025H13.6373ZM13.0399 9.13836C13.6941 9.45467 21.1562 9.40538 21.5136 9.13836H13.0399ZM28.2542 11.6656C28.2109 11.5047 27.9964 11.3829 27.8631 11.242C27.7911 11.281 27.7234 11.3211 27.6514 11.3585C27.842 12.1623 28.0153 12.9725 28.2379 13.7682C28.2634 13.8614 28.5412 13.8949 28.831 14.0065C28.6165 13.1036 28.46 12.3816 28.2542 11.6656ZM24.8441 13.6842C25.0553 12.9238 25.2238 12.1487 25.4085 11.3785L25.2395 11.2518C25.0943 11.3764 24.8603 11.4793 24.8203 11.6288C24.609 12.3573 24.4487 13.0987 24.2705 13.837C24.3268 13.8857 24.3783 13.9345 24.4357 13.9832C24.5738 13.8852 24.8083 13.8083 24.8441 13.6842ZM32.7741 22.5626H33.4695V15.8155H32.7979C32.7681 16.3572 32.8336 16.9324 32.1284 17.1756C32.0629 17.1967 32.0542 17.4085 32.0542 17.5303C32.0467 18.6428 32.0467 19.7554 32.0542 20.8678C32.0542 20.9897 32.0651 21.1923 32.1344 21.2194C32.7773 21.4745 32.7909 21.9934 32.7741 22.5626ZM20.4715 22.8448V23.8939H13.4753V22.8448H20.4715ZM13.9558 23.8051C14.0332 23.6637 14.1746 23.5224 14.1697 23.3859C14.1632 23.2564 14.0013 23.1346 13.9092 23.01C13.803 23.1319 13.6979 23.2532 13.529 23.4536C13.7169 23.6069 13.8361 23.7071 13.9558 23.8051ZM34.1151 21.0791V17.3224H36V21.0791H34.1151ZM34.7656 17.9409C34.9834 17.9279 35.2125 17.9685 35.4221 17.9246C35.551 17.8992 35.6593 17.767 35.7747 17.6809C35.668 17.6078 35.5634 17.4756 35.4475 17.4659C35.1128 17.4361 34.7743 17.4561 34.4531 17.4561C34.3052 17.8049 34.3865 17.9631 34.7656 17.9409ZM18.6982 25.365C18.6414 25.4977 18.4486 25.6607 18.3153 25.6672C17.4421 25.6925 16.5683 25.695 15.6949 25.6748C15.5563 25.6726 15.3423 25.5627 15.3001 25.4549C15.1815 25.177 15.1425 24.8689 15.0655 24.5412H18.8894C18.8169 24.8683 18.7979 25.1321 18.6993 25.365H18.6982ZM15.4523 24.7421C15.4967 25.5177 15.5189 25.5378 16.2095 25.4424C16.0887 25.0465 16.1683 24.5195 15.4523 24.7421ZM18.89 26.2132C18.8618 26.386 18.8337 26.5111 18.8196 26.64C18.7741 27.1659 18.5271 27.4113 17.9053 27.3479C17.3193 27.2867 16.7191 27.297 16.1298 27.3414C15.5736 27.3815 15.1907 27.2981 15.1679 26.6925C15.162 26.5457 15.1175 26.4033 15.0802 26.2132H18.8878H18.89ZM15.4864 26.3822C15.4349 27.1036 15.5357 27.2125 16.1921 27.0814C16.0876 26.725 16.2181 26.1996 15.4864 26.3822ZM15.8904 27.8722L16.2891 28.8374C15.9695 28.7864 15.6624 28.8152 15.6077 28.7171C15.4756 28.4761 15.4555 28.1793 15.3819 27.8548H15.1387C15.1197 27.9003 15.091 27.9355 15.098 27.9643C15.3374 28.9641 15.3396 28.9641 16.4472 28.969C16.9233 28.9722 17.4065 28.9354 17.8766 28.9804C18.4578 29.0345 18.7844 28.8596 18.8169 28.2936C18.8244 28.1679 18.8602 28.0406 18.8932 27.8711C17.8631 27.8722 16.8621 27.8722 15.8904 27.8722Z" fill="white"/>
<path fill-rule="evenodd" clip-rule="evenodd" d="M25.5574 10.522H27.4591C27.3924 10.0308 27.087 9.79789 26.6065 9.76051C26.0481 9.71827 25.7291 9.98529 25.5574 10.522ZM15.1311 21.171C15.1311 21.3573 15.0991 21.549 15.1446 21.7262C15.1668 21.8372 15.3033 21.9238 15.3916 22.0235C15.4783 21.926 15.6229 21.8372 15.6413 21.7327C15.6776 21.4759 15.65 21.2138 15.6548 20.9522C15.6889 19.284 16.6688 18.1953 18.4583 18.0393C19.8243 17.9163 21.2081 17.9748 22.5833 17.9326C22.9565 17.9228 23.3454 17.8941 23.698 17.7853C24.6941 17.4749 25.272 16.6159 25.1599 15.6648C25.1436 15.5418 24.9892 15.433 24.9004 15.3171C24.8073 15.4297 24.6502 15.5353 24.635 15.6594C24.466 17.0308 23.9753 17.443 22.4891 17.4543C21.1724 17.463 19.8454 17.3991 18.5444 17.5372C16.2387 17.7847 15.1376 19.0251 15.1311 21.171ZM31.14 17.5535C30.4088 17.444 29.8986 17.4348 29.4409 17.2832C28.8261 17.0768 28.4112 16.6538 28.4594 15.973C28.46 15.8842 28.4703 15.7747 28.4259 15.7011C28.3517 15.5657 28.2374 15.4449 28.1404 15.3219C28.0603 15.4449 27.9222 15.5635 27.9102 15.693C27.8182 16.8315 28.6192 17.7457 29.8422 17.9066C30.1185 17.944 30.4044 17.964 30.6747 17.9212C30.8199 17.8974 30.9363 17.723 31.14 17.5535ZM21.5131 9.13818H13.0393C13.6941 9.45449 21.1561 9.40466 21.5131 9.13818ZM28.8305 14.0058C28.616 13.1034 28.4589 12.3809 28.2536 11.6649C28.2103 11.504 27.9958 11.3821 27.8626 11.2413C27.7905 11.2803 27.7228 11.3204 27.6508 11.3578C27.8414 12.1615 28.0148 12.9718 28.2374 13.7675C28.2628 13.8606 28.5407 13.8948 28.8305 14.0058ZM24.4362 13.9825C24.5744 13.885 24.8089 13.8076 24.8446 13.6835C25.0559 12.9231 25.2243 12.148 25.409 11.3778L25.24 11.2511C25.0949 11.3756 24.8609 11.4786 24.8208 11.628C24.6096 12.3565 24.4492 13.098 24.271 13.8363C24.3274 13.885 24.3788 13.9338 24.4362 13.9825ZM13.5333 23.4507C13.7212 23.604 13.8404 23.7047 13.9601 23.8022C14.0375 23.6608 14.1789 23.5195 14.174 23.383C14.1675 23.2535 14.0056 23.1317 13.9135 23.0071C13.8073 23.129 13.7023 23.2503 13.5333 23.4507ZM34.452 17.4549C34.3047 17.8037 34.3854 17.9613 34.7645 17.9391C34.9823 17.9261 35.2114 17.9667 35.421 17.9228C35.5499 17.8974 35.6582 17.7652 35.7736 17.6791C35.6669 17.606 35.5624 17.4738 35.4464 17.4641C35.1117 17.4348 34.7732 17.4549 34.452 17.4549ZM16.2089 25.4444C16.0876 25.0485 16.1672 24.5215 15.4517 24.7441C15.4956 25.5197 15.5178 25.5398 16.2089 25.4444ZM16.1927 27.0801C16.0881 26.7243 16.2192 26.1984 15.4869 26.3809C15.436 27.1023 15.5368 27.2112 16.1927 27.0801Z" fill="white"/>
<path d="M15.6619 33.7533C15.6906 34.6378 16.3048 35.336 17.0322 35.3116C17.7607 35.2872 18.3278 34.5501 18.299 33.6656C18.2671 32.7822 17.6058 30.6205 16.8784 30.6427C16.151 30.6671 15.6321 32.8688 15.6619 33.7533Z" fill="white"/>
<path d="M16.8252 30.644C16.1173 30.7697 15.6234 32.8956 15.6515 33.7644C15.6797 34.6564 16.2977 35.3584 17.0327 35.334C17.3663 35.3232 17.6615 35.1596 17.8885 34.9029C16.8095 33.8294 16.4266 32.1839 16.8252 30.644Z" fill="white"/>
</svg>
