<svg width="15" height="15" viewBox="0 0 15 15" fill="none" xmlns="http://www.w3.org/2000/svg">
<g clip-path="url(#clip0_209_632)">
<path d="M9.375 14.0625H7.96875C7.72019 14.0623 7.48187 13.9634 7.30611 13.7876C7.13035 13.6119 7.0315 13.3736 7.03125 13.125V10.7812H7.96875V13.125H9.375V10.7812H10.3125V8.90625C10.3124 8.78197 10.2629 8.66281 10.1751 8.57493C10.0872 8.48705 9.96803 8.43762 9.84375 8.4375H5.75625L4.81875 5.625H1.875C1.75072 5.62512 1.63156 5.67455 1.54368 5.76243C1.4558 5.85031 1.40637 5.96947 1.40625 6.09375V8.90625H2.34375V13.125H4.21875V9.84375H5.15625V13.125C5.156 13.3736 5.05715 13.6119 4.88139 13.7876C4.70563 13.9634 4.46731 14.0623 4.21875 14.0625H2.34375C2.09519 14.0623 1.85687 13.9634 1.68111 13.7876C1.50535 13.6119 1.4065 13.3736 1.40625 13.125V9.84375C1.15769 9.8435 0.919373 9.74465 0.743611 9.56889C0.56785 9.39313 0.468998 9.15481 0.46875 8.90625V6.09375C0.469122 5.7209 0.6174 5.36343 0.881042 5.09979C1.14468 4.83615 1.50215 4.68787 1.875 4.6875H4.81875C5.01549 4.68738 5.20727 4.74921 5.36688 4.86423C5.5265 4.97925 5.64584 5.14161 5.70797 5.32828L6.43125 7.5H9.84375C10.2166 7.50037 10.5741 7.64865 10.8377 7.91229C11.1013 8.17593 11.2496 8.5334 11.25 8.90625V10.7812C11.2498 11.0298 11.1509 11.2681 10.9751 11.4439C10.7994 11.6197 10.5611 11.7185 10.3125 11.7188V13.125C10.3123 13.3736 10.2134 13.6119 10.0376 13.7876C9.86188 13.9634 9.62356 14.0623 9.375 14.0625ZM13.125 14.0625H12.1875V8.90625H13.5938V6.09375C13.5936 5.96947 13.5442 5.85031 13.4563 5.76243C13.3684 5.67455 13.2493 5.62512 13.125 5.625H11.25V4.6875H13.125C13.4978 4.68787 13.8553 4.83615 14.119 5.09979C14.3826 5.36343 14.5309 5.7209 14.5312 6.09375V8.90625C14.531 9.15481 14.4322 9.39313 14.2564 9.56889C14.0806 9.74465 13.8423 9.8435 13.5938 9.84375H13.125V14.0625Z" fill="#B29BE2"/>
<path d="M3.28125 4.21875C2.91041 4.21875 2.5479 4.10878 2.23956 3.90276C1.93121 3.69673 1.69089 3.40389 1.54898 3.06128C1.40706 2.71867 1.36993 2.34167 1.44228 1.97796C1.51463 1.61424 1.6932 1.28015 1.95543 1.01793C2.21765 0.755702 2.55174 0.577126 2.91546 0.504778C3.27917 0.432431 3.65617 0.469562 3.99878 0.611477C4.34139 0.753391 4.63423 0.993714 4.84026 1.30206C5.04628 1.6104 5.15625 1.97291 5.15625 2.34375C5.15563 2.84084 4.95789 3.31739 4.60639 3.66889C4.25489 4.02039 3.77834 4.21813 3.28125 4.21875ZM3.28125 1.40625C3.09583 1.40625 2.91457 1.46123 2.7604 1.56425C2.60623 1.66726 2.48607 1.81368 2.41511 1.98499C2.34416 2.15629 2.32559 2.34479 2.36176 2.52665C2.39794 2.70851 2.48723 2.87555 2.61834 3.00666C2.74945 3.13778 2.9165 3.22706 3.09835 3.26324C3.28021 3.29941 3.46871 3.28085 3.64002 3.20989C3.81132 3.13893 3.95774 3.01877 4.06075 2.8646C4.16377 2.71043 4.21875 2.52917 4.21875 2.34375C4.2185 2.09519 4.11965 1.85687 3.94389 1.68111C3.76813 1.50535 3.52982 1.4065 3.28125 1.40625ZM11.7188 4.21875C11.3479 4.21875 10.9854 4.10878 10.6771 3.90276C10.3687 3.69673 10.1284 3.40389 9.98648 3.06128C9.84456 2.71867 9.80743 2.34167 9.87978 1.97796C9.95213 1.61424 10.1307 1.28015 10.3929 1.01793C10.6551 0.755702 10.9892 0.577126 11.353 0.504778C11.7167 0.432431 12.0937 0.469562 12.4363 0.611477C12.7789 0.753391 13.0717 0.993714 13.2778 1.30206C13.4838 1.6104 13.5938 1.97291 13.5938 2.34375C13.5931 2.84084 13.3954 3.31739 13.0439 3.66889C12.6924 4.02039 12.2158 4.21813 11.7188 4.21875ZM11.7188 1.40625C11.5333 1.40625 11.3521 1.46123 11.1979 1.56425C11.0437 1.66726 10.9236 1.81368 10.8526 1.98499C10.7817 2.15629 10.7631 2.34479 10.7993 2.52665C10.8354 2.70851 10.9247 2.87555 11.0558 3.00666C11.1869 3.13778 11.354 3.22706 11.5359 3.26324C11.7177 3.29941 11.9062 3.28085 12.0775 3.20989C12.2488 3.13893 12.3952 3.01877 12.4983 2.8646C12.6013 2.71043 12.6563 2.52917 12.6563 2.34375C12.656 2.09519 12.5572 1.85687 12.3814 1.68111C12.2056 1.50535 11.9673 1.4065 11.7188 1.40625Z" fill="#B29BE2"/>
<path d="M8.67188 7.03125C8.34739 7.03125 8.03019 6.93503 7.76039 6.75476C7.49059 6.57448 7.28031 6.31825 7.15614 6.01847C7.03196 5.71868 6.99947 5.38881 7.06277 5.07056C7.12608 4.75231 7.28233 4.45997 7.51178 4.23053C7.74122 4.00108 8.03356 3.84483 8.35181 3.78152C8.67006 3.71822 8.99993 3.75071 9.29972 3.87489C9.5995 3.99906 9.85573 4.20934 10.036 4.47914C10.2163 4.74894 10.3125 5.06614 10.3125 5.39063C10.312 5.82559 10.139 6.24261 9.83143 6.55017C9.52386 6.85774 9.10684 7.03075 8.67188 7.03125ZM8.67188 4.6875C8.53281 4.6875 8.39687 4.72874 8.28124 4.806C8.16561 4.88326 8.07549 4.99307 8.02227 5.12155C7.96906 5.25003 7.95513 5.39141 7.98226 5.5278C8.00939 5.66419 8.07636 5.78948 8.17469 5.88781C8.27303 5.98614 8.39831 6.05311 8.5347 6.08024C8.6711 6.10737 8.81247 6.09345 8.94095 6.04023C9.06943 5.98701 9.17924 5.89689 9.2565 5.78126C9.33376 5.66563 9.375 5.52969 9.375 5.39063C9.37475 5.20422 9.30059 5.02552 9.16879 4.89372C9.03698 4.76191 8.85828 4.68775 8.67188 4.6875Z" fill="#B29BE2"/>
</g>
<defs>
<clipPath id="clip0_209_632">
<rect width="15" height="15" fill="white"/>
</clipPath>
</defs>
</svg>
