<svg width="59" height="22" viewBox="0 0 59 22" fill="none" xmlns="http://www.w3.org/2000/svg">
<path d="M10.128 18.288C8.816 18.288 7.592 18.072 6.456 17.64C5.336 17.208 4.36 16.6 3.528 15.816C2.712 15.032 2.072 14.112 1.608 13.056C1.16 12 0.936 10.848 0.936 9.6C0.936 8.352 1.16 7.2 1.608 6.144C2.072 5.088 2.72 4.168 3.552 3.384C4.384 2.6 5.36 1.992 6.48 1.56C7.6 1.128 8.816 0.912 10.128 0.912C11.456 0.912 12.672 1.128 13.776 1.56C14.896 1.992 15.864 2.6 16.68 3.384C17.512 4.152 18.16 5.064 18.624 6.12C19.088 7.176 19.32 8.336 19.32 9.6C19.32 10.848 19.088 12.008 18.624 13.08C18.16 14.136 17.512 15.056 16.68 15.84C15.864 16.608 14.896 17.208 13.776 17.64C12.672 18.072 11.456 18.288 10.128 18.288ZM15.624 21.864C14.968 21.864 14.344 21.792 13.752 21.648C13.176 21.504 12.6 21.272 12.024 20.952C11.464 20.632 10.872 20.2 10.248 19.656C9.64 19.112 8.976 18.44 8.256 17.64L12.336 16.608C12.768 17.2 13.168 17.672 13.536 18.024C13.904 18.376 14.256 18.624 14.592 18.768C14.944 18.912 15.312 18.984 15.696 18.984C16.72 18.984 17.632 18.568 18.432 17.736L20.16 19.8C19.024 21.176 17.512 21.864 15.624 21.864ZM10.128 14.976C10.88 14.976 11.568 14.848 12.192 14.592C12.832 14.336 13.392 13.968 13.872 13.488C14.352 13.008 14.72 12.44 14.976 11.784C15.248 11.112 15.384 10.384 15.384 9.6C15.384 8.8 15.248 8.072 14.976 7.416C14.72 6.76 14.352 6.192 13.872 5.712C13.392 5.232 12.832 4.864 12.192 4.608C11.568 4.352 10.88 4.224 10.128 4.224C9.376 4.224 8.68 4.352 8.04 4.608C7.4 4.864 6.84 5.232 6.36 5.712C5.896 6.192 5.528 6.76 5.256 7.416C5 8.072 4.872 8.8 4.872 9.6C4.872 10.384 5 11.112 5.256 11.784C5.528 12.44 5.896 13.008 6.36 13.488C6.84 13.968 7.4 14.336 8.04 14.592C8.68 14.848 9.376 14.976 10.128 14.976ZM21.978 18V0.191999H25.722V18H21.978ZM37.1168 18V15.48L36.8768 14.928V10.416C36.8768 9.616 36.6288 8.992 36.1328 8.544C35.6528 8.096 34.9088 7.872 33.9008 7.872C33.2128 7.872 32.5328 7.984 31.8608 8.208C31.2048 8.416 30.6448 8.704 30.1808 9.072L28.8368 6.456C29.5408 5.96 30.3888 5.576 31.3808 5.304C32.3728 5.032 33.3808 4.896 34.4048 4.896C36.3728 4.896 37.9008 5.36 38.9888 6.288C40.0768 7.216 40.6208 8.664 40.6208 10.632V18H37.1168ZM33.1808 18.192C32.1728 18.192 31.3088 18.024 30.5888 17.688C29.8688 17.336 29.3168 16.864 28.9328 16.272C28.5488 15.68 28.3568 15.016 28.3568 14.28C28.3568 13.512 28.5408 12.84 28.9088 12.264C29.2928 11.688 29.8928 11.24 30.7088 10.92C31.5248 10.584 32.5888 10.416 33.9008 10.416H37.3328V12.6H34.3088C33.4288 12.6 32.8208 12.744 32.4848 13.032C32.1648 13.32 32.0048 13.68 32.0048 14.112C32.0048 14.592 32.1888 14.976 32.5568 15.264C32.9408 15.536 33.4608 15.672 34.1168 15.672C34.7408 15.672 35.3008 15.528 35.7968 15.24C36.2928 14.936 36.6528 14.496 36.8768 13.92L37.4528 15.648C37.1808 16.48 36.6848 17.112 35.9648 17.544C35.2448 17.976 34.3168 18.192 33.1808 18.192ZM51.6413 18.192C50.5053 18.192 49.5293 17.952 48.7133 17.472C47.8973 16.992 47.2733 16.264 46.8413 15.288C46.4093 14.296 46.1933 13.048 46.1933 11.544C46.1933 10.024 46.4173 8.776 46.8653 7.8C47.3293 6.824 47.9693 6.096 48.7853 5.616C49.6013 5.136 50.5533 4.896 51.6413 4.896C52.8573 4.896 53.9453 5.168 54.9053 5.712C55.8813 6.256 56.6493 7.024 57.2093 8.016C57.7853 9.008 58.0733 10.184 58.0733 11.544C58.0733 12.888 57.7853 14.056 57.2093 15.048C56.6493 16.04 55.8813 16.816 54.9053 17.376C53.9453 17.92 52.8573 18.192 51.6413 18.192ZM44.0093 18V0.191999H47.7533V7.704L47.5133 11.52L47.5853 15.36V18H44.0093ZM50.9933 15.12C51.6173 15.12 52.1693 14.976 52.6493 14.688C53.1453 14.4 53.5373 13.992 53.8253 13.464C54.1293 12.92 54.2812 12.28 54.2812 11.544C54.2812 10.792 54.1293 10.152 53.8253 9.624C53.5373 9.096 53.1453 8.688 52.6493 8.4C52.1693 8.112 51.6173 7.968 50.9933 7.968C50.3693 7.968 49.8093 8.112 49.3133 8.4C48.8173 8.688 48.4253 9.096 48.1373 9.624C47.8493 10.152 47.7053 10.792 47.7053 11.544C47.7053 12.28 47.8493 12.92 48.1373 13.464C48.4253 13.992 48.8173 14.4 49.3133 14.688C49.8093 14.976 50.3693 15.12 50.9933 15.12Z" fill="#38D263"/>
</svg>
