<svg width="19" height="12" viewBox="0 0 19 12" fill="none" xmlns="http://www.w3.org/2000/svg">
<path d="M18.5415 2.10265C18.5422 2.33919 18.4996 2.57291 18.4169 2.78662C18.3342 3.00034 18.2134 3.18863 18.0636 3.33765L10.3136 10.9851C10.0825 11.218 9.79255 11.3453 9.49337 11.3453C9.19419 11.3453 8.90428 11.218 8.67316 10.9851L0.923161 3.06848C0.659381 2.79973 0.493499 2.41354 0.462009 1.99486C0.430518 1.57619 0.535998 1.15932 0.755244 0.83598C0.974489 0.512638 1.28954 0.309299 1.63109 0.270699C1.97264 0.232098 2.31271 0.361395 2.57649 0.630147L9.49983 7.70765L16.4232 0.867648C16.6128 0.674033 16.8436 0.551044 17.0885 0.513235C17.3333 0.475426 17.5818 0.524378 17.8047 0.6543C18.0275 0.784222 18.2154 0.989675 18.3459 1.24635C18.4765 1.50302 18.5444 1.80018 18.5415 2.10265Z" fill="#5E38AF"/>
</svg>
