<svg width="27" height="17" viewBox="0 0 27 17" fill="none" xmlns="http://www.w3.org/2000/svg">
<path d="M0 13.5V15.5223C0 15.8963 0.30375 16.2 0.6777 16.2H2.02365C2.20315 16.1996 2.37518 16.1281 2.50198 16.001C2.62879 15.874 2.7 15.7018 2.7 15.5223V13.5C2.7 12.2054 3.78135 10.4314 5.4 9.74835V6.9066C2.2734 7.6302 0 10.7595 0 13.5ZM16.2877 0.94635L12.8723 3.50865C12.4038 3.85965 11.8341 4.05 11.2482 4.05H8.10675C7.3575 4.05 6.75 4.6575 6.75 5.40675V10.7946C6.75 11.5425 7.3575 12.15 8.10675 12.15H11.2482C11.8341 12.15 12.4038 12.3404 12.8723 12.6914L16.2891 15.2536C17.1076 15.8679 18.1034 16.2 19.1268 16.2H21.6V0H19.1268C18.1035 0 17.1072 0.3321 16.2877 0.94635V0.94635ZM22.95 2.7V5.4H27V2.7H22.95ZM22.95 13.5H27V10.8H22.95V13.5Z" fill="#A986A7"/>
</svg>
